<mxfile host="65bd71144e">
    <diagram id="DGqg8H-zAF8JqBksjRlz" name="现实处理流程">
        <mxGraphModel dx="1086" dy="816" grid="1" gridSize="10" guides="1" tooltips="1" connect="1" arrows="1" fold="1" page="1" pageScale="1" pageWidth="827" pageHeight="1169" math="0" shadow="0">
            <root>
                <mxCell id="0"/>
                <mxCell id="1" parent="0"/>
                <mxCell id="Epjyn752wN6a6ZekLFLu-15" value="" style="group" vertex="1" connectable="0" parent="1">
                    <mxGeometry x="100" y="80" width="620" height="440" as="geometry"/>
                </mxCell>
                <mxCell id="Epjyn752wN6a6ZekLFLu-14" value="" style="rounded=0;whiteSpace=wrap;html=1;" vertex="1" parent="Epjyn752wN6a6ZekLFLu-15">
                    <mxGeometry width="620" height="440" as="geometry"/>
                </mxCell>
                <mxCell id="Epjyn752wN6a6ZekLFLu-1" value="项目经理审批" style="points=[[0.25,0,0],[0.5,0,0],[0.75,0,0],[1,0.25,0],[1,0.5,0],[1,0.75,0],[0.75,1,0],[0.5,1,0],[0.25,1,0],[0,0.75,0],[0,0.5,0],[0,0.25,0]];shape=mxgraph.bpmn.task;whiteSpace=wrap;rectStyle=rounded;size=10;html=1;taskMarker=user;" vertex="1" parent="Epjyn752wN6a6ZekLFLu-15">
                    <mxGeometry x="220" y="60" width="120" height="80" as="geometry"/>
                </mxCell>
                <mxCell id="Epjyn752wN6a6ZekLFLu-3" style="edgeStyle=none;html=1;" edge="1" parent="Epjyn752wN6a6ZekLFLu-15" source="Epjyn752wN6a6ZekLFLu-2" target="Epjyn752wN6a6ZekLFLu-1">
                    <mxGeometry relative="1" as="geometry"/>
                </mxCell>
                <mxCell id="Epjyn752wN6a6ZekLFLu-2" value="" style="points=[[0.145,0.145,0],[0.5,0,0],[0.855,0.145,0],[1,0.5,0],[0.855,0.855,0],[0.5,1,0],[0.145,0.855,0],[0,0.5,0]];shape=mxgraph.bpmn.event;html=1;verticalLabelPosition=bottom;labelBackgroundColor=#ffffff;verticalAlign=top;align=center;perimeter=ellipsePerimeter;outlineConnect=0;aspect=fixed;outline=standard;symbol=general;" vertex="1" parent="Epjyn752wN6a6ZekLFLu-15">
                    <mxGeometry x="70" y="75" width="50" height="50" as="geometry"/>
                </mxCell>
                <mxCell id="Epjyn752wN6a6ZekLFLu-4" value="" style="points=[[0.145,0.145,0],[0.5,0,0],[0.855,0.145,0],[1,0.5,0],[0.855,0.855,0],[0.5,1,0],[0.145,0.855,0],[0,0.5,0]];shape=mxgraph.bpmn.event;html=1;verticalLabelPosition=bottom;labelBackgroundColor=#ffffff;verticalAlign=top;align=center;perimeter=ellipsePerimeter;outlineConnect=0;aspect=fixed;outline=end;symbol=terminate2;" vertex="1" parent="Epjyn752wN6a6ZekLFLu-15">
                    <mxGeometry x="450" y="75" width="50" height="50" as="geometry"/>
                </mxCell>
                <mxCell id="Epjyn752wN6a6ZekLFLu-5" style="edgeStyle=none;html=1;" edge="1" parent="Epjyn752wN6a6ZekLFLu-15" source="Epjyn752wN6a6ZekLFLu-1" target="Epjyn752wN6a6ZekLFLu-4">
                    <mxGeometry relative="1" as="geometry"/>
                </mxCell>
                <mxCell id="Epjyn752wN6a6ZekLFLu-7" style="edgeStyle=none;html=1;" edge="1" parent="Epjyn752wN6a6ZekLFLu-15" source="Epjyn752wN6a6ZekLFLu-6" target="Epjyn752wN6a6ZekLFLu-1">
                    <mxGeometry relative="1" as="geometry"/>
                </mxCell>
                <mxCell id="Epjyn752wN6a6ZekLFLu-6" value="项目经理" style="shape=umlActor;verticalLabelPosition=bottom;verticalAlign=top;html=1;outlineConnect=0;fillColor=#f8cecc;strokeColor=#b85450;" vertex="1" parent="Epjyn752wN6a6ZekLFLu-15">
                    <mxGeometry x="265" y="260" width="30" height="60" as="geometry"/>
                </mxCell>
                <mxCell id="Epjyn752wN6a6ZekLFLu-8" value="用户任务" style="text;html=1;align=center;verticalAlign=middle;resizable=0;points=[];autosize=1;strokeColor=none;fillColor=none;" vertex="1" parent="Epjyn752wN6a6ZekLFLu-15">
                    <mxGeometry x="245" y="30" width="70" height="30" as="geometry"/>
                </mxCell>
                <mxCell id="Epjyn752wN6a6ZekLFLu-9" value="查询任务" style="ellipse;whiteSpace=wrap;html=1;" vertex="1" parent="Epjyn752wN6a6ZekLFLu-15">
                    <mxGeometry x="390" y="220" width="140" height="70" as="geometry"/>
                </mxCell>
                <mxCell id="Epjyn752wN6a6ZekLFLu-11" style="edgeStyle=none;html=1;" edge="1" parent="Epjyn752wN6a6ZekLFLu-15" source="Epjyn752wN6a6ZekLFLu-6" target="Epjyn752wN6a6ZekLFLu-9">
                    <mxGeometry relative="1" as="geometry"/>
                </mxCell>
                <mxCell id="Epjyn752wN6a6ZekLFLu-10" value="审批任务" style="ellipse;whiteSpace=wrap;html=1;" vertex="1" parent="Epjyn752wN6a6ZekLFLu-15">
                    <mxGeometry x="390" y="310" width="140" height="70" as="geometry"/>
                </mxCell>
                <mxCell id="Epjyn752wN6a6ZekLFLu-12" style="edgeStyle=none;html=1;" edge="1" parent="Epjyn752wN6a6ZekLFLu-15" source="Epjyn752wN6a6ZekLFLu-6" target="Epjyn752wN6a6ZekLFLu-10">
                    <mxGeometry relative="1" as="geometry"/>
                </mxCell>
            </root>
        </mxGraphModel>
    </diagram>
    <diagram id="mbWmZqzXeBUXHupnZBBp" name="自动化程序流程">
        <mxGraphModel dx="1086" dy="816" grid="1" gridSize="10" guides="1" tooltips="1" connect="1" arrows="1" fold="1" page="1" pageScale="1" pageWidth="827" pageHeight="1169" math="0" shadow="0">
            <root>
                <mxCell id="0"/>
                <mxCell id="1" parent="0"/>
                <mxCell id="f7PryZ2VAUxEyKP4IJix-1" value="" style="group" vertex="1" connectable="0" parent="1">
                    <mxGeometry x="240" y="190" width="620" height="440" as="geometry"/>
                </mxCell>
                <mxCell id="f7PryZ2VAUxEyKP4IJix-2" value="" style="rounded=0;whiteSpace=wrap;html=1;" vertex="1" parent="f7PryZ2VAUxEyKP4IJix-1">
                    <mxGeometry width="620" height="440" as="geometry"/>
                </mxCell>
                <mxCell id="f7PryZ2VAUxEyKP4IJix-3" value="项目经理审批" style="points=[[0.25,0,0],[0.5,0,0],[0.75,0,0],[1,0.25,0],[1,0.5,0],[1,0.75,0],[0.75,1,0],[0.5,1,0],[0.25,1,0],[0,0.75,0],[0,0.5,0],[0,0.25,0]];shape=mxgraph.bpmn.task;whiteSpace=wrap;rectStyle=rounded;size=10;html=1;taskMarker=user;" vertex="1" parent="f7PryZ2VAUxEyKP4IJix-1">
                    <mxGeometry x="220" y="60" width="120" height="80" as="geometry"/>
                </mxCell>
                <mxCell id="f7PryZ2VAUxEyKP4IJix-4" style="edgeStyle=none;html=1;" edge="1" parent="f7PryZ2VAUxEyKP4IJix-1" source="f7PryZ2VAUxEyKP4IJix-5" target="f7PryZ2VAUxEyKP4IJix-3">
                    <mxGeometry relative="1" as="geometry"/>
                </mxCell>
                <mxCell id="f7PryZ2VAUxEyKP4IJix-5" value="" style="points=[[0.145,0.145,0],[0.5,0,0],[0.855,0.145,0],[1,0.5,0],[0.855,0.855,0],[0.5,1,0],[0.145,0.855,0],[0,0.5,0]];shape=mxgraph.bpmn.event;html=1;verticalLabelPosition=bottom;labelBackgroundColor=#ffffff;verticalAlign=top;align=center;perimeter=ellipsePerimeter;outlineConnect=0;aspect=fixed;outline=standard;symbol=general;" vertex="1" parent="f7PryZ2VAUxEyKP4IJix-1">
                    <mxGeometry x="70" y="75" width="50" height="50" as="geometry"/>
                </mxCell>
                <mxCell id="f7PryZ2VAUxEyKP4IJix-6" value="" style="points=[[0.145,0.145,0],[0.5,0,0],[0.855,0.145,0],[1,0.5,0],[0.855,0.855,0],[0.5,1,0],[0.145,0.855,0],[0,0.5,0]];shape=mxgraph.bpmn.event;html=1;verticalLabelPosition=bottom;labelBackgroundColor=#ffffff;verticalAlign=top;align=center;perimeter=ellipsePerimeter;outlineConnect=0;aspect=fixed;outline=end;symbol=terminate2;" vertex="1" parent="f7PryZ2VAUxEyKP4IJix-1">
                    <mxGeometry x="450" y="75" width="50" height="50" as="geometry"/>
                </mxCell>
                <mxCell id="f7PryZ2VAUxEyKP4IJix-7" style="edgeStyle=none;html=1;" edge="1" parent="f7PryZ2VAUxEyKP4IJix-1" source="f7PryZ2VAUxEyKP4IJix-3" target="f7PryZ2VAUxEyKP4IJix-6">
                    <mxGeometry relative="1" as="geometry"/>
                </mxCell>
                <mxCell id="f7PryZ2VAUxEyKP4IJix-8" style="edgeStyle=none;html=1;" edge="1" parent="f7PryZ2VAUxEyKP4IJix-1" source="f7PryZ2VAUxEyKP4IJix-14" target="f7PryZ2VAUxEyKP4IJix-3">
                    <mxGeometry relative="1" as="geometry">
                        <mxPoint x="280" y="260" as="sourcePoint"/>
                    </mxGeometry>
                </mxCell>
                <mxCell id="f7PryZ2VAUxEyKP4IJix-9" value="用户任务" style="text;html=1;align=center;verticalAlign=middle;resizable=0;points=[];autosize=1;strokeColor=none;fillColor=none;" vertex="1" parent="f7PryZ2VAUxEyKP4IJix-1">
                    <mxGeometry x="245" y="30" width="70" height="30" as="geometry"/>
                </mxCell>
                <mxCell id="f7PryZ2VAUxEyKP4IJix-10" value="查询任务" style="ellipse;whiteSpace=wrap;html=1;" vertex="1" parent="f7PryZ2VAUxEyKP4IJix-1">
                    <mxGeometry x="390" y="220" width="140" height="70" as="geometry"/>
                </mxCell>
                <mxCell id="f7PryZ2VAUxEyKP4IJix-11" style="edgeStyle=none;html=1;" edge="1" parent="f7PryZ2VAUxEyKP4IJix-1" source="f7PryZ2VAUxEyKP4IJix-14" target="f7PryZ2VAUxEyKP4IJix-10">
                    <mxGeometry relative="1" as="geometry">
                        <mxPoint x="295" y="287.08333333333326" as="sourcePoint"/>
                    </mxGeometry>
                </mxCell>
                <mxCell id="f7PryZ2VAUxEyKP4IJix-12" value="审批任务" style="ellipse;whiteSpace=wrap;html=1;" vertex="1" parent="f7PryZ2VAUxEyKP4IJix-1">
                    <mxGeometry x="390" y="310" width="140" height="70" as="geometry"/>
                </mxCell>
                <mxCell id="f7PryZ2VAUxEyKP4IJix-13" style="edgeStyle=none;html=1;" edge="1" parent="f7PryZ2VAUxEyKP4IJix-1" source="f7PryZ2VAUxEyKP4IJix-14" target="f7PryZ2VAUxEyKP4IJix-12">
                    <mxGeometry relative="1" as="geometry">
                        <mxPoint x="295" y="294.58333333333326" as="sourcePoint"/>
                    </mxGeometry>
                </mxCell>
                <mxCell id="f7PryZ2VAUxEyKP4IJix-14" value="程序" style="html=1;fillColor=#f8cecc;strokeColor=#b85450;" vertex="1" parent="f7PryZ2VAUxEyKP4IJix-1">
                    <mxGeometry x="220" y="270" width="120" height="60" as="geometry"/>
                </mxCell>
            </root>
        </mxGraphModel>
    </diagram>
    <diagram id="qtxXAH-ZiciiD5V1Hx8T" name="逻辑架构">
        <mxGraphModel dx="1086" dy="816" grid="1" gridSize="10" guides="1" tooltips="1" connect="1" arrows="1" fold="1" page="1" pageScale="1" pageWidth="827" pageHeight="1169" math="0" shadow="0">
            <root>
                <mxCell id="0"/>
                <mxCell id="1" parent="0"/>
                <mxCell id="u_oD6EtPP0AWzQ-7OcWh-41" style="edgeStyle=none;html=1;entryX=0.783;entryY=1.019;entryDx=0;entryDy=0;entryPerimeter=0;fontSize=16;endArrow=none;endFill=0;" edge="1" parent="1" source="u_oD6EtPP0AWzQ-7OcWh-37" target="u_oD6EtPP0AWzQ-7OcWh-40">
                    <mxGeometry relative="1" as="geometry"/>
                </mxCell>
                <mxCell id="u_oD6EtPP0AWzQ-7OcWh-42" value="提供给业务查询作业进度" style="edgeLabel;html=1;align=center;verticalAlign=middle;resizable=0;points=[];fontSize=16;" vertex="1" connectable="0" parent="u_oD6EtPP0AWzQ-7OcWh-41">
                    <mxGeometry x="0.0958" y="-1" relative="1" as="geometry">
                        <mxPoint x="-3" y="-35" as="offset"/>
                    </mxGeometry>
                </mxCell>
                <mxCell id="u_oD6EtPP0AWzQ-7OcWh-37" value="" style="html=1;dropTarget=0;" vertex="1" parent="1">
                    <mxGeometry x="600" y="490" width="340" height="350" as="geometry"/>
                </mxCell>
                <mxCell id="u_oD6EtPP0AWzQ-7OcWh-38" value="" style="shape=module;jettyWidth=8;jettyHeight=4;" vertex="1" parent="u_oD6EtPP0AWzQ-7OcWh-37">
                    <mxGeometry x="1" width="20" height="20" relative="1" as="geometry">
                        <mxPoint x="-27" y="7" as="offset"/>
                    </mxGeometry>
                </mxCell>
                <mxCell id="15" style="edgeStyle=none;html=1;endArrow=none;endFill=0;" parent="1" source="3" target="7" edge="1">
                    <mxGeometry relative="1" as="geometry"/>
                </mxCell>
                <mxCell id="3" value="消息队列" style="html=1;dropTarget=0;" parent="1" vertex="1">
                    <mxGeometry x="325" y="350" width="140" height="70" as="geometry"/>
                </mxCell>
                <mxCell id="4" value="" style="shape=module;jettyWidth=8;jettyHeight=4;" parent="3" vertex="1">
                    <mxGeometry x="1" width="20" height="20" relative="1" as="geometry">
                        <mxPoint x="-27" y="7" as="offset"/>
                    </mxGeometry>
                </mxCell>
                <mxCell id="7" value="" style="html=1;dropTarget=0;" parent="1" vertex="1">
                    <mxGeometry x="220" y="490" width="340" height="350" as="geometry"/>
                </mxCell>
                <mxCell id="8" value="" style="shape=module;jettyWidth=8;jettyHeight=4;" parent="7" vertex="1">
                    <mxGeometry x="1" width="20" height="20" relative="1" as="geometry">
                        <mxPoint x="-27" y="7" as="offset"/>
                    </mxGeometry>
                </mxCell>
                <mxCell id="16" style="edgeStyle=none;html=1;endArrow=none;endFill=0;" parent="1" source="9" target="13" edge="1">
                    <mxGeometry relative="1" as="geometry"/>
                </mxCell>
                <mxCell id="9" value="执行工人" style="html=1;dropTarget=0;" parent="1" vertex="1">
                    <mxGeometry x="325" y="580" width="140" height="60" as="geometry"/>
                </mxCell>
                <mxCell id="10" value="" style="shape=module;jettyWidth=8;jettyHeight=4;" parent="9" vertex="1">
                    <mxGeometry x="1" width="20" height="20" relative="1" as="geometry">
                        <mxPoint x="-27" y="7" as="offset"/>
                    </mxGeometry>
                </mxCell>
                <mxCell id="u_oD6EtPP0AWzQ-7OcWh-18" style="edgeStyle=none;html=1;fontSize=16;endArrow=none;endFill=0;" edge="1" parent="1" source="13" target="u_oD6EtPP0AWzQ-7OcWh-17">
                    <mxGeometry relative="1" as="geometry"/>
                </mxCell>
                <mxCell id="13" value="工作流引擎" style="html=1;dropTarget=0;" parent="1" vertex="1">
                    <mxGeometry x="305" y="680" width="180" height="90" as="geometry"/>
                </mxCell>
                <mxCell id="14" value="" style="shape=module;jettyWidth=8;jettyHeight=4;" parent="13" vertex="1">
                    <mxGeometry x="1" width="20" height="20" relative="1" as="geometry">
                        <mxPoint x="-27" y="7" as="offset"/>
                    </mxGeometry>
                </mxCell>
                <mxCell id="u_oD6EtPP0AWzQ-7OcWh-16" value="基于工作流引擎的自动化作业程序" style="text;html=1;align=center;verticalAlign=middle;resizable=0;points=[];autosize=1;strokeColor=none;fillColor=none;fontSize=16;" vertex="1" parent="1">
                    <mxGeometry x="260" y="510" width="260" height="30" as="geometry"/>
                </mxCell>
                <mxCell id="u_oD6EtPP0AWzQ-7OcWh-17" value="工作流数据" style="ellipse;shape=umlEntity;whiteSpace=wrap;html=1;fontSize=16;" vertex="1" parent="1">
                    <mxGeometry x="540" y="930" width="80" height="80" as="geometry"/>
                </mxCell>
                <mxCell id="u_oD6EtPP0AWzQ-7OcWh-33" style="edgeStyle=none;html=1;fontSize=16;endArrow=none;endFill=0;" edge="1" parent="1" source="u_oD6EtPP0AWzQ-7OcWh-31" target="u_oD6EtPP0AWzQ-7OcWh-34">
                    <mxGeometry relative="1" as="geometry">
                        <mxPoint x="790" y="740" as="targetPoint"/>
                    </mxGeometry>
                </mxCell>
                <mxCell id="u_oD6EtPP0AWzQ-7OcWh-31" value="查询接口" style="html=1;dropTarget=0;" vertex="1" parent="1">
                    <mxGeometry x="700" y="580" width="140" height="60" as="geometry"/>
                </mxCell>
                <mxCell id="u_oD6EtPP0AWzQ-7OcWh-32" value="" style="shape=module;jettyWidth=8;jettyHeight=4;" vertex="1" parent="u_oD6EtPP0AWzQ-7OcWh-31">
                    <mxGeometry x="1" width="20" height="20" relative="1" as="geometry">
                        <mxPoint x="-27" y="7" as="offset"/>
                    </mxGeometry>
                </mxCell>
                <mxCell id="u_oD6EtPP0AWzQ-7OcWh-36" style="edgeStyle=none;html=1;fontSize=16;endArrow=none;endFill=0;" edge="1" parent="1" source="u_oD6EtPP0AWzQ-7OcWh-34" target="u_oD6EtPP0AWzQ-7OcWh-17">
                    <mxGeometry relative="1" as="geometry"/>
                </mxCell>
                <mxCell id="u_oD6EtPP0AWzQ-7OcWh-34" value="工作流引擎" style="html=1;dropTarget=0;" vertex="1" parent="1">
                    <mxGeometry x="680" y="680" width="180" height="90" as="geometry"/>
                </mxCell>
                <mxCell id="u_oD6EtPP0AWzQ-7OcWh-35" value="" style="shape=module;jettyWidth=8;jettyHeight=4;" vertex="1" parent="u_oD6EtPP0AWzQ-7OcWh-34">
                    <mxGeometry x="1" width="20" height="20" relative="1" as="geometry">
                        <mxPoint x="-27" y="7" as="offset"/>
                    </mxGeometry>
                </mxCell>
                <mxCell id="u_oD6EtPP0AWzQ-7OcWh-39" value="工作流进度服务" style="text;html=1;align=center;verticalAlign=middle;resizable=0;points=[];autosize=1;strokeColor=none;fillColor=none;fontSize=16;" vertex="1" parent="1">
                    <mxGeometry x="700" y="510" width="140" height="30" as="geometry"/>
                </mxCell>
                <mxCell id="u_oD6EtPP0AWzQ-7OcWh-43" value="" style="group" vertex="1" connectable="0" parent="1">
                    <mxGeometry x="150" y="70" width="796" height="170" as="geometry"/>
                </mxCell>
                <mxCell id="u_oD6EtPP0AWzQ-7OcWh-40" value="" style="rounded=0;whiteSpace=wrap;html=1;fontSize=16;" vertex="1" parent="u_oD6EtPP0AWzQ-7OcWh-43">
                    <mxGeometry width="796" height="170" as="geometry"/>
                </mxCell>
                <mxCell id="u_oD6EtPP0AWzQ-7OcWh-19" value="&amp;nbsp;业务微服务－1" style="html=1;dropTarget=0;fontSize=16;" vertex="1" parent="u_oD6EtPP0AWzQ-7OcWh-43">
                    <mxGeometry x="60" y="50" width="180" height="70" as="geometry"/>
                </mxCell>
                <mxCell id="u_oD6EtPP0AWzQ-7OcWh-20" value="" style="shape=module;jettyWidth=8;jettyHeight=4;fontSize=16;" vertex="1" parent="u_oD6EtPP0AWzQ-7OcWh-19">
                    <mxGeometry x="1" width="20" height="20" relative="1" as="geometry">
                        <mxPoint x="-27" y="7" as="offset"/>
                    </mxGeometry>
                </mxCell>
                <mxCell id="u_oD6EtPP0AWzQ-7OcWh-21" value="业务微服务－2" style="html=1;dropTarget=0;fontSize=16;" vertex="1" parent="u_oD6EtPP0AWzQ-7OcWh-43">
                    <mxGeometry x="330" y="50" width="160" height="70" as="geometry"/>
                </mxCell>
                <mxCell id="u_oD6EtPP0AWzQ-7OcWh-22" value="" style="shape=module;jettyWidth=8;jettyHeight=4;fontSize=16;" vertex="1" parent="u_oD6EtPP0AWzQ-7OcWh-21">
                    <mxGeometry x="1" width="20" height="20" relative="1" as="geometry">
                        <mxPoint x="-27" y="7" as="offset"/>
                    </mxGeometry>
                </mxCell>
                <mxCell id="u_oD6EtPP0AWzQ-7OcWh-23" value="业务微服务..." style="html=1;dropTarget=0;fontSize=16;" vertex="1" parent="u_oD6EtPP0AWzQ-7OcWh-43">
                    <mxGeometry x="560" y="50" width="160" height="70" as="geometry"/>
                </mxCell>
                <mxCell id="u_oD6EtPP0AWzQ-7OcWh-24" value="" style="shape=module;jettyWidth=8;jettyHeight=4;fontSize=16;" vertex="1" parent="u_oD6EtPP0AWzQ-7OcWh-23">
                    <mxGeometry x="1" width="20" height="20" relative="1" as="geometry">
                        <mxPoint x="-27" y="7" as="offset"/>
                    </mxGeometry>
                </mxCell>
                <mxCell id="u_oD6EtPP0AWzQ-7OcWh-25" style="edgeStyle=none;html=1;fontSize=16;endArrow=none;endFill=0;exitX=0.306;exitY=1.011;exitDx=0;exitDy=0;exitPerimeter=0;" edge="1" parent="1" source="u_oD6EtPP0AWzQ-7OcWh-40" target="3">
                    <mxGeometry relative="1" as="geometry"/>
                </mxCell>
                <mxCell id="u_oD6EtPP0AWzQ-7OcWh-28" value="作业任务消息" style="edgeLabel;html=1;align=center;verticalAlign=middle;resizable=0;points=[];fontSize=16;" vertex="1" connectable="0" parent="u_oD6EtPP0AWzQ-7OcWh-25">
                    <mxGeometry x="-0.3266" y="-3" relative="1" as="geometry">
                        <mxPoint x="4" y="32" as="offset"/>
                    </mxGeometry>
                </mxCell>
                <mxCell id="u_oD6EtPP0AWzQ-7OcWh-45" style="edgeStyle=none;html=1;fontSize=16;endArrow=none;endFill=0;" edge="1" parent="1" source="u_oD6EtPP0AWzQ-7OcWh-44" target="3">
                    <mxGeometry relative="1" as="geometry"/>
                </mxCell>
                <mxCell id="u_oD6EtPP0AWzQ-7OcWh-44" value="消息数据" style="ellipse;shape=umlEntity;whiteSpace=wrap;html=1;fontSize=16;" vertex="1" parent="1">
                    <mxGeometry x="150" y="345" width="80" height="80" as="geometry"/>
                </mxCell>
            </root>
        </mxGraphModel>
    </diagram>
</mxfile>